<svg width="30" height="30" viewBox="0 0 30 30" fill="none" xmlns="http://www.w3.org/2000/svg">
<path d="M1.95689 2.08281C-0.393836 4.52404 0.0872779 7.11731 0.0872779 14.9956C0.0872779 21.5379 -1.05443 28.0965 4.92085 29.6405C6.78672 30.1203 23.3191 30.1203 25.1825 29.638C27.6703 28.9962 29.6945 26.9787 29.9712 23.4608C30.0098 22.9698 30.0098 7.03008 29.9699 6.52912C29.6758 2.78191 27.3687 0.622305 24.3287 0.184901C23.6319 0.0839621 23.4923 0.0540542 19.9176 0.0478234C7.23792 0.0540542 4.45843 -0.510458 1.95689 2.08281Z" fill="url(#paint0_linear)"/>
<path d="M15.0073 4.75142C18.3491 4.75142 18.7449 4.76607 20.0591 4.82467C21.2805 4.87839 21.9401 5.08351 22.3798 5.25444C22.9612 5.4791 23.3814 5.75259 23.8162 6.18724C24.2559 6.62678 24.5246 7.0419 24.7494 7.62307C24.9204 8.06261 25.1256 8.7268 25.1793 9.94286C25.2379 11.2615 25.2526 11.6571 25.2526 14.9927C25.2526 18.3332 25.2379 18.7288 25.1793 20.0425C25.1256 21.2634 24.9204 21.9227 24.7494 22.3623C24.5246 22.9434 24.251 23.3635 23.8162 23.7981C23.3765 24.2376 22.9612 24.5063 22.3798 24.7309C21.9401 24.9018 21.2757 25.107 20.0591 25.1607C18.74 25.2193 18.3442 25.2339 15.0073 25.2339C11.6655 25.2339 11.2698 25.2193 9.95554 25.1607C8.73412 25.107 8.07456 24.9018 7.63484 24.7309C7.05345 24.5063 6.63328 24.2328 6.19846 23.7981C5.75875 23.3586 5.49003 22.9434 5.26529 22.3623C5.09429 21.9227 4.8891 21.2585 4.83535 20.0425C4.77672 18.7239 4.76207 18.3283 4.76207 14.9927C4.76207 11.6522 4.77672 11.2566 4.83535 9.94286C4.8891 8.72192 5.09429 8.06261 5.26529 7.62307C5.49003 7.0419 5.76363 6.6219 6.19846 6.18724C6.63817 5.7477 7.05345 5.4791 7.63484 5.25444C8.07456 5.08351 8.73901 4.87839 9.95554 4.82467C11.2698 4.76607 11.6655 4.75142 15.0073 4.75142ZM15.0073 2.5C11.6118 2.5 11.1867 2.51465 9.85294 2.57326C8.52404 2.63186 7.61042 2.84675 6.81894 3.15442C5.99326 3.47675 5.29461 3.90164 4.60084 4.60002C3.90219 5.29351 3.47714 5.99189 3.15468 6.81237C2.84688 7.60842 2.63191 8.5168 2.57329 9.84518C2.51466 11.1833 2.5 11.6082 2.5 15.0024C2.5 18.3967 2.51466 18.8215 2.57329 20.1548C2.63191 21.4832 2.84688 22.3965 3.15468 23.1876C3.47714 24.013 3.90219 24.7114 4.60084 25.4049C5.29461 26.0984 5.99326 26.5281 6.81405 26.8456C7.61042 27.1533 8.51915 27.3681 9.84806 27.4267C11.1818 27.4853 11.6069 27.5 15.0024 27.5C18.398 27.5 18.823 27.4853 20.1568 27.4267C21.4857 27.3681 22.3994 27.1533 23.1908 26.8456C24.0116 26.5281 24.7103 26.0984 25.404 25.4049C26.0978 24.7114 26.5278 24.013 26.8453 23.1925C27.1531 22.3965 27.3681 21.4881 27.4267 20.1597C27.4853 18.8264 27.5 18.4015 27.5 15.0073C27.5 11.6131 27.4853 11.1882 27.4267 9.85495C27.3681 8.52657 27.1531 7.6133 26.8453 6.82213C26.5375 5.99189 26.1125 5.29351 25.4138 4.60002C24.7201 3.90652 24.0214 3.47675 23.2006 3.15931C22.4042 2.85163 21.4955 2.63675 20.1666 2.57814C18.8279 2.51465 18.4029 2.5 15.0073 2.5Z" fill="white"/>
<path d="M15.0073 8.58032C11.4603 8.58032 8.58264 11.4569 8.58264 15.0025C8.58264 18.5481 11.4603 21.4246 15.0073 21.4246C18.5543 21.4246 21.432 18.5481 21.432 15.0025C21.432 11.4569 18.5543 8.58032 15.0073 8.58032ZM15.0073 19.1683C12.7062 19.1683 10.8398 17.3027 10.8398 15.0025C10.8398 12.7022 12.7062 10.8366 15.0073 10.8366C17.3085 10.8366 19.1748 12.7022 19.1748 15.0025C19.1748 17.3027 17.3085 19.1683 15.0073 19.1683Z" fill="white"/>
<path d="M23.186 8.32593C23.186 9.15601 22.5117 9.82495 21.6861 9.82495C20.8555 9.82495 20.1862 9.15113 20.1862 8.32593C20.1862 7.49585 20.8604 6.8269 21.6861 6.8269C22.5117 6.8269 23.186 7.50073 23.186 8.32593Z" fill="white"/>
<defs>
<linearGradient id="paint0_linear" x1="2.01425" y1="28.0455" x2="29.8113" y2="3.98276" gradientUnits="userSpaceOnUse">
<stop stop-color="#8E7F42"/>
<stop offset="0.5" stop-color="#FF543E"/>
<stop offset="1" stop-color="#C837AB"/>
</linearGradient>
</defs>
</svg>
