<svg width="13" height="13" viewBox="0 0 13 13" fill="none" xmlns="http://www.w3.org/2000/svg">
<path d="M7.95496 10.4298C7.51302 9.98788 7.15946 9.49291 6.8943 8.96611C6.80945 8.80348 6.64327 8.69388 6.44882 8.69034L4.89319 8.69034C4.40175 7.18067 4.39821 5.54372 4.89319 4.03051L6.45236 4.02697C6.64328 4.03404 6.80944 3.92444 6.8943 3.76181C7.15946 3.23501 7.51302 2.74004 7.95496 2.2981C8.14941 2.10364 8.14941 1.78544 7.95496 1.59099L6.71752 0.353553C6.52307 0.159099 6.20487 0.159099 6.01041 0.353553C2.69055 3.67342 2.69055 9.0545 6.01041 12.3744C6.20487 12.5688 6.52307 12.5688 6.71752 12.3744L7.95496 11.1369C8.14941 10.9425 8.14941 10.6243 7.95496 10.4298ZM8.83884 8.83883L9.54595 9.54594C11.3031 7.78878 11.3031 4.93914 9.54595 3.18198L8.83884 3.88909C10.2071 5.25734 10.2071 7.47058 8.83884 8.83883ZM7.42463 7.42462L8.13173 8.13173C9.10754 7.15592 9.10754 5.572 8.13173 4.59619L7.42463 5.3033C8.01153 5.8902 8.01153 6.83772 7.42463 7.42462Z" fill="white"/>
</svg>
