<svg width="31" height="30" viewBox="0 0 31 30" fill="none" xmlns="http://www.w3.org/2000/svg">
<path fill-rule="evenodd" clip-rule="evenodd" d="M15.3303 -3.8147e-06C23.6146 -3.8147e-06 30.3303 6.71573 30.3303 15C30.3303 23.2843 23.6146 30 15.3303 30C7.04605 30 0.330322 23.2843 0.330322 15C0.330322 6.71573 7.04605 -3.8147e-06 15.3303 -3.8147e-06Z" fill="#7F4DA0"/>
<path fill-rule="evenodd" clip-rule="evenodd" d="M19.3266 13.0991C19.2537 12.5064 19.0715 12.041 18.748 11.6288C18.3279 11.098 17.791 10.7801 16.9963 10.5916C16.4783 10.4659 16.269 10.4803 16.0817 10.6514C15.9072 10.8118 15.8731 11.1332 16.0065 11.3413C16.1002 11.4923 16.2084 11.5465 16.5093 11.6055C16.91 11.6792 17.1869 11.7749 17.4388 11.919C17.9735 12.2277 18.2224 12.7108 18.2491 13.4928C18.2616 13.8601 18.2933 13.973 18.4215 14.1032C18.6593 14.3413 19.0823 14.295 19.2618 14.0101C19.3276 13.9027 19.3377 13.8559 19.3446 13.6066C19.3492 13.4522 19.3426 13.2224 19.3266 13.0991Z" fill="white"/>
<path fill-rule="evenodd" clip-rule="evenodd" d="M21.4208 13.7673C21.3152 11.9515 20.6049 10.4905 19.3338 9.46264C18.6176 8.88507 17.7519 8.48792 16.803 8.29477C16.4554 8.22569 15.8155 8.1697 15.7057 8.20173C15.602 8.23139 15.4555 8.34357 15.3902 8.44502C15.3211 8.55503 15.3056 8.80066 15.3645 8.94274C15.4596 9.18026 15.6365 9.26417 16.132 9.30752C16.8958 9.37434 17.6836 9.64269 18.2788 10.04C18.9584 10.4923 19.4986 11.111 19.8481 11.838C20.1501 12.4626 20.3358 13.3628 20.3306 14.169C20.3289 14.4605 20.374 14.6252 20.4912 14.7455C20.6682 14.9306 20.9262 14.9711 21.1538 14.8482C21.4062 14.7155 21.4652 14.4825 21.4208 13.7673Z" fill="white"/>
<path fill-rule="evenodd" clip-rule="evenodd" d="M23.738 20.7602C23.7025 20.6564 23.6196 20.4963 23.5604 20.4044C23.1874 19.8411 21.1832 18.2726 20.1826 17.7596C19.6112 17.4662 19.1879 17.3683 18.8741 17.4602C18.5366 17.5551 18.3589 17.7122 17.7935 18.4149C17.5656 18.6966 17.3317 18.9605 17.2695 19.002C17.1156 19.1087 16.8136 19.1947 16.6005 19.1947C16.1061 19.1917 15.209 18.8715 14.5193 18.4505C13.9834 18.1244 13.2966 17.5403 12.7697 16.9621C12.1479 16.2832 11.7246 15.6842 11.3901 15.0082C10.9579 14.1395 10.8483 13.6088 11.0289 13.2204C11.0733 13.1225 11.1325 13.0188 11.1591 12.9861C11.1858 12.9565 11.4641 12.7282 11.772 12.4791C12.3759 11.9989 12.4736 11.8891 12.5861 11.56C12.7282 11.142 12.6897 10.715 12.4706 10.2851C12.3019 9.95897 11.8608 9.2474 11.5411 8.78785C11.1177 8.18303 10.0638 6.89032 9.85359 6.71534C9.47466 6.40702 8.9892 6.35362 8.45331 6.56121C7.88791 6.78062 6.82805 7.6345 6.37509 8.23046C5.96655 8.77006 5.8097 9.15252 5.78599 9.65656C5.76528 10.0716 5.80079 10.2436 6.01987 10.7743C7.73396 14.9371 10.2917 18.2607 13.8058 20.8995C15.6413 22.2782 17.5448 23.3278 19.5194 24.0453C20.671 24.4633 21.1713 24.4841 21.7605 24.1402C22.0091 23.9919 22.6249 23.3604 22.9683 22.9009C23.5367 22.1359 23.7469 21.7831 23.8061 21.5014C23.8476 21.3087 23.815 20.9737 23.738 20.7602Z" fill="white"/>
<path fill-rule="evenodd" clip-rule="evenodd" d="M23.5525 14.1843C23.5146 13.1572 23.3417 12.3146 22.9811 11.3753C22.625 10.4513 22.2647 9.84838 21.5842 9.03286C20.9409 8.26822 20.4412 7.83163 19.6486 7.34564C18.5429 6.66852 17.1973 6.22043 15.6893 6.03198C15.175 5.96612 15.0587 5.97082 14.9009 6.0761C14.5952 6.27552 14.5993 6.77295 14.906 6.96939C15.0075 7.03187 15.0976 7.05464 15.509 7.10848C16.1404 7.1935 16.5465 7.27362 17.0283 7.40508C18.9177 7.92157 20.3707 8.97729 21.342 10.5444C22.1549 11.8507 22.4923 13.157 22.4444 14.8254C22.4278 15.3895 22.4399 15.4888 22.5261 15.6243C22.6912 15.8769 23.1267 15.9268 23.35 15.7172C23.489 15.5895 23.5152 15.4936 23.5426 15.0108C23.5557 14.759 23.5585 14.3872 23.5525 14.1843Z" fill="white"/>
</svg>
