<svg width="35" height="35" viewBox="0 0 35 35" fill="none" xmlns="http://www.w3.org/2000/svg">
<path fill-rule="evenodd" clip-rule="evenodd" d="M14.8147 31.9799C22.9966 33.278 30.6817 27.6976 31.9799 19.5156C33.278 11.3337 27.6976 3.6486 19.5156 2.35047C11.3337 1.05234 3.6486 6.63277 2.35047 14.8147C1.05234 22.9966 6.63277 30.6817 14.8147 31.9799Z" fill="#25D366"/>
<path fill-rule="evenodd" clip-rule="evenodd" d="M16.3458 25.485L16.3421 25.4844C14.8679 25.25 13.4779 24.6502 12.3025 23.7442L7.43824 24.2283L9.41224 19.8617C8.8533 18.4034 8.68809 16.8236 8.93509 15.2711C9.70764 10.4143 14.2864 7.0897 19.142 7.86008C21.4984 8.23499 23.5647 9.50332 24.9637 11.4323C26.3627 13.3613 26.927 15.7198 26.5526 18.0734C25.7803 22.9291 21.2031 26.2536 16.3458 25.485ZM12.7719 22.1838L13.0141 22.3849C14.0324 23.2304 15.265 23.7878 16.5788 23.9968L16.5818 23.9973C20.6174 24.6375 24.4231 21.874 25.0653 17.837C25.3765 15.8806 24.9075 13.9204 23.7447 12.317C22.5819 10.7137 20.8645 9.65946 18.9089 9.3485C14.8701 8.70772 11.0644 11.4709 10.4223 15.5077C10.2022 16.8911 10.3756 18.2999 10.9235 19.5819L11.0537 19.8865L9.88533 22.4711L12.7719 22.1838ZM21.8491 19.4747C21.8087 19.3742 21.6707 19.2958 21.4681 19.1507C21.2654 19.0056 20.2677 18.3015 20.0776 18.1959C19.8875 18.0905 19.7465 18.0305 19.5649 18.2275C19.3832 18.4246 18.8827 18.8535 18.731 18.98C18.5793 19.1065 18.4479 19.1046 18.2454 18.9595C18.0427 18.8144 17.3704 18.4694 16.6486 17.5861C16.0868 16.8986 15.7594 16.1077 15.666 15.867C15.5726 15.6263 15.7062 15.5254 15.8338 15.4331C15.9485 15.3502 16.0947 15.2109 16.2251 15.0998C16.3556 14.9888 16.4068 14.9028 16.5035 14.7676C16.6002 14.6323 16.5839 14.498 16.5463 14.379C16.5088 14.2601 16.2405 13.1068 16.127 12.637C16.0164 12.1794 15.8257 12.2088 15.6917 12.1806C15.5645 12.1538 15.4178 12.1291 15.2711 12.1058C15.1243 12.0826 14.8771 12.0998 14.6404 12.2882C14.4037 12.4765 13.7505 12.9188 13.5787 14.0022C13.4068 15.0857 14.0294 16.2575 14.1162 16.4218C14.2029 16.5862 15.2922 19.0383 17.3491 20.342C17.8382 20.6521 18.2267 20.8526 18.5303 21.0048C19.031 21.256 19.5147 21.3085 19.9029 21.312C20.3358 21.3159 21.2896 20.9861 21.5547 20.5011C21.8196 20.016 21.8896 19.5752 21.8491 19.4747Z" fill="#FDFDFD"/>
</svg>
