<svg width="31" height="30" viewBox="0 0 31 30" fill="none" xmlns="http://www.w3.org/2000/svg">
<path d="M15.3303 30C23.6146 30 30.3303 23.2843 30.3303 15C30.3303 6.71573 23.6146 0 15.3303 0C7.04605 0 0.330322 6.71573 0.330322 15C0.330322 23.2843 7.04605 30 15.3303 30Z" fill="#FF0302"/>
<path d="M24.9124 10.2002C24.6838 9.33301 24.01 8.65625 23.1428 8.41894C21.5842 8 15.3293 8 15.3293 8C15.3293 8 9.07446 8 7.51587 8.41894C6.65161 8.65332 5.97778 9.33301 5.74634 10.2002C5.33032 11.7705 5.33032 15.0459 5.33032 15.0459C5.33032 15.0459 5.33032 18.3213 5.74927 19.8916C5.98071 20.7588 6.65161 21.4355 7.5188 21.6729C9.07739 22.0918 15.3323 22.0918 15.3323 22.0918C15.3323 22.0918 21.5872 22.0918 23.1458 21.6729C24.01 21.4385 24.6838 20.7588 24.9153 19.8916C25.3342 18.3213 25.3342 15.0459 25.3342 15.0459C25.3342 15.0459 25.3284 11.7705 24.9124 10.2002ZM13.2844 18.0195V12.0723L18.511 15.0459L13.2844 18.0195Z" fill="white"/>
</svg>
